<svg id="_Layer_" data-name="&lt;Layer&gt;" xmlns="http://www.w3.org/2000/svg" viewBox="0 0 403.81 136.86"><defs><style>.cls-1{fill:#006ac0;}.cls-2{fill:#fd8d00;}</style></defs><path class="cls-1" d="M144.26,113.31a47.77,47.77,0,0,0,24.18,6.82c13.79,0,21.85-7.29,21.85-17.83,0-9.76-5.58-15.34-19.68-20.77-17.05-6-27.59-14.88-27.59-29.6,0-16.28,13.48-28.37,33.79-28.37,10.69,0,18.44,2.48,23.09,5.12l-3.72,11a41.59,41.59,0,0,0-19.84-5c-14.26,0-19.68,8.53-19.68,15.66,0,9.76,6.35,14.57,20.77,20.15,17.67,6.82,26.66,15.34,26.66,30.69,0,16.12-11.94,30.07-36.58,30.07-10.08,0-21.08-2.95-26.66-6.67Z" transform="translate(-25.58 -23.56)"/><path class="cls-1" d="M231.68,33.17V54.72h19.53V65.1H231.68v40.46c0,9.3,2.63,14.57,10.23,14.57a30.52,30.52,0,0,0,7.9-.93l.63,10.23a33.52,33.52,0,0,1-12.09,1.86c-6.36,0-11.47-2-14.73-5.74-3.88-4-5.27-10.69-5.27-19.53V65.1H206.72V54.72h11.63v-18Z" transform="translate(-25.58 -23.56)"/><path class="cls-1" d="M327.16,91.61c0,27.74-19.22,39.83-37.36,39.83-20.3,0-36-14.88-36-38.59C253.84,67.74,270.28,53,291,53,312.59,53,327.16,68.67,327.16,91.61Zm-59.52.77c0,16.43,9.45,28.83,22.78,28.83,13,0,22.79-12.24,22.79-29.14,0-12.71-6.36-28.83-22.48-28.83S267.64,78.12,267.64,92.38Z" transform="translate(-25.58 -23.56)"/><path class="cls-1" d="M338,79.21c0-9.61-.31-17.36-.62-24.49h12.24l.62,12.86h.31C356.14,58.44,365,53,377.22,53,395.36,53,409,68.36,409,91.14c0,27-16.43,40.3-34.1,40.3-9.92,0-18.6-4.34-23.1-11.78h-.31v40.77H338Zm13.48,20a30.61,30.61,0,0,0,.62,5.58,21,21,0,0,0,20.46,16c14.42,0,22.79-11.78,22.79-29,0-15-7.91-27.9-22.32-27.9-9.3,0-18,6.67-20.62,16.9a22.31,22.31,0,0,0-.93,5.58Z" transform="translate(-25.58 -23.56)"/><path class="cls-2" d="M104.78,126.33c-5,2.48-14.88,5-27.59,5-29.45,0-51.61-18.6-51.61-52.86,0-32.7,22.16-54.87,54.56-54.87,13,0,21.23,2.79,24.8,4.65l-3.26,11A49.1,49.1,0,0,0,80.6,34.88C56.11,34.88,39.84,50.53,39.84,78c0,25.57,14.72,42,40.14,42,8.22,0,16.59-1.7,22-4.34Z" transform="translate(-25.58 -23.56)"/><path class="cls-2" d="M140.43,82.77V92.85H102.15V82.77Z" transform="translate(-25.58 -23.56)"/><path d="M409.88,40.72H406V39.33h9.37v1.39h-3.87V52h-1.65Z" transform="translate(-25.58 -23.56)"/><path d="M427.48,46.43c-.1-1.77-.21-3.89-.19-5.47h-.06c-.43,1.48-1,3.06-1.59,4.81l-2.24,6.14h-1.24l-2.05-6c-.6-1.78-1.11-3.42-1.46-4.92h0c0,1.58-.13,3.7-.24,5.6L418,52h-1.56l.88-12.66h2.09l2.16,6.12c.52,1.56,1,2.95,1.28,4.26h.05c.32-1.27.77-2.66,1.33-4.26l2.26-6.12h2.08L429.39,52H427.8Z" transform="translate(-25.58 -23.56)"/></svg>